<svg version="1.1" viewBox="0.0 0.0 600.0 371.0" fill="none" stroke="none" stroke-linecap="square" stroke-miterlimit="10" width="600" height="371" xmlns:xlink="http://www.w3.org/1999/xlink" xmlns="http://www.w3.org/2000/svg"><path fill="#ffffff" d="M0 0L600.0 0L600.0 371.0L0 371.0L0 0Z" fill-rule="nonzero"/><path stroke="#cccccc" stroke-width="1.0" stroke-linecap="butt" d="M145.5 51.5L145.5 300.5" fill-rule="nonzero"/><path stroke="#cccccc" stroke-width="1.0" stroke-linecap="butt" d="M254.5 51.5L254.5 300.5" fill-rule="nonzero"/><path stroke="#cccccc" stroke-width="1.0" stroke-linecap="butt" d="M363.5 51.5L363.5 300.5" fill-rule="nonzero"/><path stroke="#cccccc" stroke-width="1.0" stroke-linecap="butt" d="M472.5 51.5L472.5 300.5" fill-rule="nonzero"/><path stroke="#cccccc" stroke-width="1.0" stroke-linecap="butt" d="M581.5 51.5L581.5 300.5" fill-rule="nonzero"/><path stroke="#333333" stroke-width="1.0" stroke-linecap="butt" d="M91.5 300.5L581.5 300.5" fill-rule="nonzero"/><path stroke="#cccccc" stroke-width="1.0" stroke-linecap="butt" d="M91.5 238.5L581.5 238.5" fill-rule="nonzero"/><path stroke="#cccccc" stroke-width="1.0" stroke-linecap="butt" d="M91.5 176.5L581.5 176.5" fill-rule="nonzero"/><path stroke="#cccccc" stroke-width="1.0" stroke-linecap="butt" d="M91.5 114.5L581.5 114.5" fill-rule="nonzero"/><path stroke="#cccccc" stroke-width="1.0" stroke-linecap="butt" d="M91.5 51.5L581.5 51.5" fill-rule="nonzero"/><clipPath id="id_0"><path d="M91.55 51.916668L581.45 51.916668L581.45 300.45L91.55 300.45L91.55 51.916668Z" clip-rule="nonzero"/></clipPath><path stroke="#4285f4" stroke-width="2.0" stroke-linecap="butt" clip-path="url(#id_0)" d="M91.55 294.2819L118.76667 291.50082L145.98334 288.69525L173.2 285.95465L200.41667 284.0683L254.85 275.9235L309.28333 271.87897L363.71667 268.4762L418.15 260.65262L472.58334 254.71812L527.01666 246.6731L581.45 240.6084" fill-rule="nonzero"/><path stroke="#ea4335" stroke-width="2.0" stroke-linecap="butt" clip-path="url(#id_0)" d="M91.55 296.55573L118.76667 293.80746L145.98334 289.53864L173.2 285.53564L200.41667 277.8264L254.85 267.2375L309.28333 244.40015L363.71667 225.38522L418.15 191.35431L472.58334 166.01036L527.01666 146.82434L581.45 105.74501" fill-rule="nonzero"/><path fill="#000000" fill-opacity="0.0" clip-path="url(#id_0)" d="M94.55 294.2819C94.55 295.93875 93.206856 297.2819 91.55 297.2819C89.89314 297.2819 88.55 295.93875 88.55 294.2819C88.55 292.62503 89.89314 291.2819 91.55 291.2819C93.206856 291.2819 94.55 292.62503 94.55 294.2819Z" fill-rule="nonzero"/><path fill="#000000" fill-opacity="0.0" clip-path="url(#id_0)" d="M121.76667 291.50082C121.76667 293.15765 120.42352 294.50082 118.76667 294.50082C117.10981 294.50082 115.76667 293.15765 115.76667 291.50082C115.76667 289.84396 117.10981 288.50082 118.76667 288.50082C120.42352 288.50082 121.76667 289.84396 121.76667 291.50082Z" fill-rule="nonzero"/><path fill="#000000" fill-opacity="0.0" clip-path="url(#id_0)" d="M148.98334 288.69525C148.98334 290.3521 147.64018 291.69525 145.98334 291.69525C144.32648 291.69525 142.98334 290.3521 142.98334 288.69525C142.98334 287.0384 144.32648 285.69525 145.98334 285.69525C147.64018 285.69525 148.98334 287.0384 148.98334 288.69525Z" fill-rule="nonzero"/><path fill="#000000" fill-opacity="0.0" clip-path="url(#id_0)" d="M176.2 285.95465C176.2 287.6115 174.85686 288.95465 173.2 288.95465C171.54315 288.95465 170.2 287.6115 170.2 285.95465C170.2 284.29782 171.54315 282.95465 173.2 282.95465C174.85686 282.95465 176.2 284.29782 176.2 285.95465Z" fill-rule="nonzero"/><path fill="#000000" fill-opacity="0.0" clip-path="url(#id_0)" d="M203.41667 284.0683C203.41667 285.72516 202.07352 287.0683 200.41667 287.0683C198.75981 287.0683 197.41667 285.72516 197.41667 284.0683C197.41667 282.41144 198.75981 281.0683 200.41667 281.0683C202.07352 281.0683 203.41667 282.41144 203.41667 284.0683Z" fill-rule="nonzero"/><path fill="#000000" fill-opacity="0.0" clip-path="url(#id_0)" d="M257.85 275.9235C257.85 277.58035 256.50687 278.9235 254.85 278.9235C253.19315 278.9235 251.85 277.58035 251.85 275.9235C251.85 274.26663 253.19315 272.9235 254.85 272.9235C256.50687 272.9235 257.85 274.26663 257.85 275.9235Z" fill-rule="nonzero"/><path fill="#000000" fill-opacity="0.0" clip-path="url(#id_0)" d="M312.28333 271.87897C312.28333 273.53583 310.9402 274.87897 309.28333 274.87897C307.62646 274.87897 306.28333 273.53583 306.28333 271.87897C306.28333 270.22214 307.62646 268.87897 309.28333 268.87897C310.9402 268.87897 312.28333 270.22214 312.28333 271.87897Z" fill-rule="nonzero"/><path fill="#000000" fill-opacity="0.0" clip-path="url(#id_0)" d="M366.71667 268.4762C366.71667 270.13303 365.37354 271.4762 363.71667 271.4762C362.0598 271.4762 360.71667 270.13303 360.71667 268.4762C360.71667 266.81934 362.0598 265.4762 363.71667 265.4762C365.37354 265.4762 366.71667 266.81934 366.71667 268.4762Z" fill-rule="nonzero"/><path fill="#000000" fill-opacity="0.0" clip-path="url(#id_0)" d="M421.15 260.65262C421.15 262.30945 419.80685 263.65262 418.15 263.65262C416.49313 263.65262 415.15 262.30945 415.15 260.65262C415.15 258.99576 416.49313 257.65262 418.15 257.65262C419.80685 257.65262 421.15 258.99576 421.15 260.65262Z" fill-rule="nonzero"/><path fill="#000000" fill-opacity="0.0" clip-path="url(#id_0)" d="M475.58334 254.71812C475.58334 256.37497 474.24017 257.71814 472.58334 257.71814C470.92648 257.71814 469.58334 256.37497 469.58334 254.71812C469.58334 253.06128 470.92648 251.71812 472.58334 251.71812C474.24017 251.71812 475.58334 253.06128 475.58334 254.71812Z" fill-rule="nonzero"/><path fill="#000000" fill-opacity="0.0" clip-path="url(#id_0)" d="M530.01666 246.6731C530.01666 248.32996 528.6735 249.6731 527.01666 249.6731C525.3598 249.6731 524.01666 248.32996 524.01666 246.6731C524.01666 245.01625 525.3598 243.6731 527.01666 243.6731C528.6735 243.6731 530.01666 245.01625 530.01666 246.6731Z" fill-rule="nonzero"/><path fill="#000000" fill-opacity="0.0" clip-path="url(#id_0)" d="M584.45 240.6084C584.45 242.26524 583.1069 243.6084 581.45 243.6084C579.79315 243.6084 578.45 242.26524 578.45 240.6084C578.45 238.95154 579.79315 237.6084 581.45 237.6084C583.1069 237.6084 584.45 238.95154 584.45 240.6084Z" fill-rule="nonzero"/><path fill="#000000" fill-opacity="0.0" clip-path="url(#id_0)" d="M94.55 296.55573C94.55 298.2126 93.206856 299.55573 91.55 299.55573C89.89314 299.55573 88.55 298.2126 88.55 296.55573C88.55 294.89886 89.89314 293.55573 91.55 293.55573C93.206856 293.55573 94.55 294.89886 94.55 296.55573Z" fill-rule="nonzero"/><path fill="#000000" fill-opacity="0.0" clip-path="url(#id_0)" d="M121.76667 293.80746C121.76667 295.4643 120.42352 296.80746 118.76667 296.80746C117.10981 296.80746 115.76667 295.4643 115.76667 293.80746C115.76667 292.1506 117.10981 290.80746 118.76667 290.80746C120.42352 290.80746 121.76667 292.1506 121.76667 293.80746Z" fill-rule="nonzero"/><path fill="#000000" fill-opacity="0.0" clip-path="url(#id_0)" d="M148.98334 289.53864C148.98334 291.1955 147.64018 292.53864 145.98334 292.53864C144.32648 292.53864 142.98334 291.1955 142.98334 289.53864C142.98334 287.88177 144.32648 286.53864 145.98334 286.53864C147.64018 286.53864 148.98334 287.88177 148.98334 289.53864Z" fill-rule="nonzero"/><path fill="#000000" fill-opacity="0.0" clip-path="url(#id_0)" d="M176.2 285.53564C176.2 287.1925 174.85686 288.53564 173.2 288.53564C171.54315 288.53564 170.2 287.1925 170.2 285.53564C170.2 283.87878 171.54315 282.53564 173.2 282.53564C174.85686 282.53564 176.2 283.87878 176.2 285.53564Z" fill-rule="nonzero"/><path fill="#000000" fill-opacity="0.0" clip-path="url(#id_0)" d="M203.41667 277.8264C203.41667 279.48325 202.07352 280.8264 200.41667 280.8264C198.75981 280.8264 197.41667 279.48325 197.41667 277.8264C197.41667 276.16953 198.75981 274.8264 200.41667 274.8264C202.07352 274.8264 203.41667 276.16953 203.41667 277.8264Z" fill-rule="nonzero"/><path fill="#000000" fill-opacity="0.0" clip-path="url(#id_0)" d="M257.85 267.2375C257.85 268.89435 256.50687 270.2375 254.85 270.2375C253.19315 270.2375 251.85 268.89435 251.85 267.2375C251.85 265.58063 253.19315 264.2375 254.85 264.2375C256.50687 264.2375 257.85 265.58063 257.85 267.2375Z" fill-rule="nonzero"/><path fill="#000000" fill-opacity="0.0" clip-path="url(#id_0)" d="M312.28333 244.40015C312.28333 246.05699 310.9402 247.40015 309.28333 247.40015C307.62646 247.40015 306.28333 246.05699 306.28333 244.40015C306.28333 242.74329 307.62646 241.40015 309.28333 241.40015C310.9402 241.40015 312.28333 242.74329 312.28333 244.40015Z" fill-rule="nonzero"/><path fill="#000000" fill-opacity="0.0" clip-path="url(#id_0)" d="M366.71667 225.38522C366.71667 227.04208 365.37354 228.38522 363.71667 228.38522C362.0598 228.38522 360.71667 227.04208 360.71667 225.38522C360.71667 223.72838 362.0598 222.38522 363.71667 222.38522C365.37354 222.38522 366.71667 223.72838 366.71667 225.38522Z" fill-rule="nonzero"/><path fill="#000000" fill-opacity="0.0" clip-path="url(#id_0)" d="M421.15 191.35431C421.15 193.01115 419.80685 194.35431 418.15 194.35431C416.49313 194.35431 415.15 193.01115 415.15 191.35431C415.15 189.69745 416.49313 188.35431 418.15 188.35431C419.80685 188.35431 421.15 189.69745 421.15 191.35431Z" fill-rule="nonzero"/><path fill="#000000" fill-opacity="0.0" clip-path="url(#id_0)" d="M475.58334 166.01036C475.58334 167.66722 474.24017 169.01036 472.58334 169.01036C470.92648 169.01036 469.58334 167.66722 469.58334 166.01036C469.58334 164.35352 470.92648 163.01036 472.58334 163.01036C474.24017 163.01036 475.58334 164.35352 475.58334 166.01036Z" fill-rule="nonzero"/><path fill="#000000" fill-opacity="0.0" clip-path="url(#id_0)" d="M530.01666 146.82434C530.01666 148.48119 528.6735 149.82434 527.01666 149.82434C525.3598 149.82434 524.01666 148.48119 524.01666 146.82434C524.01666 145.16748 525.3598 143.82434 527.01666 143.82434C528.6735 143.82434 530.01666 145.16748 530.01666 146.82434Z" fill-rule="nonzero"/><path fill="#000000" fill-opacity="0.0" clip-path="url(#id_0)" d="M584.45 105.74501C584.45 107.40186 583.1069 108.74501 581.45 108.74501C579.79315 108.74501 578.45 107.40186 578.45 105.74501C578.45 104.08816 579.79315 102.74501 581.45 102.74501C583.1069 102.74501 584.45 104.08816 584.45 105.74501Z" fill-rule="nonzero"/><path fill="#000000" d="M303.5625 346.4344L304.6875 346.73126Q304.32812 348.1219 303.40625 348.85626Q302.48438 349.59064 301.14062 349.59064Q299.75 349.59064 298.875 349.02814Q298.0 348.46564 297.54688 347.40314Q297.09375 346.325 297.09375 345.09064Q297.09375 343.7469 297.60938 342.7469Q298.125 341.7469 299.0625 341.23126Q300.01562 340.71564 301.15625 340.71564Q302.4375 340.71564 303.3125 341.3719Q304.20312 342.02814 304.54688 343.21564L303.42188 343.48126Q303.125 342.54376 302.54688 342.1219Q301.98438 341.6844 301.125 341.6844Q300.14062 341.6844 299.46875 342.16876Q298.8125 342.6375 298.53125 343.4344Q298.26562 344.23126 298.26562 345.09064Q298.26562 346.1844 298.57812 346.9969Q298.90625 347.8094 299.57812 348.21564Q300.25 348.6219 301.04688 348.6219Q302.0 348.6219 302.65625 348.075Q303.32812 347.52814 303.5625 346.4344ZM305.90625 346.34064Q305.90625 344.60626 306.85938 343.77814Q307.65625 343.09064 308.8125 343.09064Q310.09375 343.09064 310.90625 343.9344Q311.73438 344.7625 311.73438 346.2469Q311.73438 347.45 311.375 348.1375Q311.01562 348.825 310.3125 349.21564Q309.625 349.59064 308.8125 349.59064Q307.51562 349.59064 306.70312 348.7625Q305.90625 347.91876 305.90625 346.34064ZM306.98438 346.34064Q306.98438 347.52814 307.5 348.1219Q308.03125 348.71564 308.8125 348.71564Q309.60938 348.71564 310.125 348.1219Q310.64062 347.52814 310.64062 346.3094Q310.64062 345.15314 310.10938 344.5594Q309.59375 343.96564 308.8125 343.96564Q308.03125 343.96564 307.5 344.5594Q306.98438 345.1375 306.98438 346.34064ZM313.26562 349.45L313.26562 340.85626L314.32812 340.85626L314.32812 349.45L313.26562 349.45ZM316.26562 349.45L316.26562 340.85626L317.32812 340.85626L317.32812 349.45L316.26562 349.45ZM323.54688 347.45L324.64062 347.575Q324.39062 348.52814 323.6875 349.0594Q322.98438 349.59064 321.90625 349.59064Q320.54688 349.59064 319.73438 348.7469Q318.9375 347.90314 318.9375 346.3875Q318.9375 344.825 319.75 343.96564Q320.5625 343.09064 321.84375 343.09064Q323.09375 343.09064 323.875 343.9344Q324.67188 344.77814 324.67188 346.325Q324.67188 346.41876 324.67188 346.60626L320.03125 346.60626Q320.09375 347.6375 320.60938 348.1844Q321.125 348.71564 321.90625 348.71564Q322.48438 348.71564 322.89062 348.41876Q323.3125 348.10626 323.54688 347.45ZM320.09375 345.7469L323.5625 345.7469Q323.5 344.95 323.17188 344.5594Q322.65625 343.95 321.85938 343.95Q321.125 343.95 320.625 344.4344Q320.14062 344.91876 320.09375 345.7469ZM330.35938 347.16876L331.39062 347.3094Q331.21875 348.3719 330.51562 348.98126Q329.8125 349.59064 328.79688 349.59064Q327.51562 349.59064 326.73438 348.7625Q325.96875 347.91876 325.96875 346.35626Q325.96875 345.35626 326.29688 344.60626Q326.64062 343.84064 327.3125 343.46564Q328.0 343.09064 328.8125 343.09064Q329.8125 343.09064 330.45312 343.60626Q331.10938 344.10626 331.29688 345.0594L330.26562 345.21564Q330.125 344.59064 329.75 344.27814Q329.375 343.95 328.84375 343.95Q328.04688 343.95 327.54688 344.52814Q327.04688 345.09064 327.04688 346.325Q327.04688 347.59064 327.53125 348.15314Q328.01562 348.71564 328.78125 348.71564Q329.40625 348.71564 329.8125 348.34064Q330.23438 347.96564 330.35938 347.16876ZM334.59375 348.5125L334.75 349.4344Q334.29688 349.52814 333.95312 349.52814Q333.375 349.52814 333.0625 349.35626Q332.75 349.16876 332.60938 348.8719Q332.48438 348.575 332.48438 347.6219L332.48438 344.04376L331.71875 344.04376L331.71875 343.23126L332.48438 343.23126L332.48438 341.6844L333.53125 341.0594L333.53125 343.23126L334.59375 343.23126L334.59375 344.04376L333.53125 344.04376L333.53125 347.6844Q333.53125 348.1375 333.57812 348.2625Q333.64062 348.3875 333.76562 348.46564Q333.89062 348.54376 334.125 348.54376Q334.3125 348.54376 334.59375 348.5125ZM335.29688 342.075L335.29688 340.85626L336.35938 340.85626L336.35938 342.075L335.29688 342.075ZM335.29688 349.45L335.29688 343.23126L336.35938 343.23126L336.35938 349.45L335.29688 349.45ZM337.90625 346.34064Q337.90625 344.60626 338.85938 343.77814Q339.65625 343.09064 340.8125 343.09064Q342.09375 343.09064 342.90625 343.9344Q343.73438 344.7625 343.73438 346.2469Q343.73438 347.45 343.375 348.1375Q343.01562 348.825 342.3125 349.21564Q341.625 349.59064 340.8125 349.59064Q339.51562 349.59064 338.70312 348.7625Q337.90625 347.91876 337.90625 346.34064ZM338.98438 346.34064Q338.98438 347.52814 339.5 348.1219Q340.03125 348.71564 340.8125 348.71564Q341.60938 348.71564 342.125 348.1219Q342.64062 347.52814 342.64062 346.3094Q342.64062 345.15314 342.10938 344.5594Q341.59375 343.96564 340.8125 343.96564Q340.03125 343.96564 339.5 344.5594Q338.98438 345.1375 338.98438 346.34064ZM345.29688 349.45L345.29688 343.23126L346.23438 343.23126L346.23438 344.10626Q346.92188 343.09064 348.21875 343.09064Q348.78125 343.09064 349.25 343.29376Q349.73438 343.4969 349.96875 343.825Q350.20312 344.15314 350.29688 344.59064Q350.34375 344.8875 350.34375 345.6219L350.34375 349.45L349.29688 349.45L349.29688 345.66876Q349.29688 345.0125 349.17188 344.7Q349.04688 344.3875 348.73438 344.2Q348.42188 343.9969 348.0 343.9969Q347.32812 343.9969 346.82812 344.4344Q346.34375 344.85626 346.34375 346.04376L346.34375 349.45L345.29688 349.45ZM354.875 347.59064L355.90625 347.4344Q356.0 348.0594 356.39062 348.3875Q356.79688 348.71564 357.53125 348.71564Q358.25 348.71564 358.59375 348.4344Q358.95312 348.1375 358.95312 347.73126Q358.95312 347.3719 358.64062 347.16876Q358.42188 347.02814 357.5625 346.8094Q356.40625 346.5125 355.95312 346.3094Q355.51562 346.09064 355.28125 345.71564Q355.04688 345.34064 355.04688 344.8719Q355.04688 344.46564 355.23438 344.10626Q355.42188 343.7469 355.75 343.5125Q356.0 343.34064 356.42188 343.21564Q356.84375 343.09064 357.34375 343.09064Q358.0625 343.09064 358.60938 343.3094Q359.17188 343.5125 359.4375 343.8719Q359.70312 344.23126 359.79688 344.825L358.76562 344.96564Q358.70312 344.4969 358.35938 344.23126Q358.03125 343.95 357.40625 343.95Q356.6875 343.95 356.375 344.2Q356.0625 344.4344 356.0625 344.7625Q356.0625 344.96564 356.1875 345.1219Q356.32812 345.29376 356.59375 345.40314Q356.75 345.46564 357.53125 345.66876Q358.65625 345.98126 359.09375 346.16876Q359.53125 346.35626 359.78125 346.71564Q360.03125 347.075 360.03125 347.6219Q360.03125 348.15314 359.71875 348.6219Q359.42188 349.075 358.84375 349.34064Q358.26562 349.59064 357.53125 349.59064Q356.3125 349.59064 355.67188 349.09064Q355.04688 348.575 354.875 347.59064ZM362.29688 342.075L362.29688 340.85626L363.35938 340.85626L363.35938 342.075L362.29688 342.075ZM362.29688 349.45L362.29688 343.23126L363.35938 343.23126L363.35938 349.45L362.29688 349.45ZM364.73438 349.45L364.73438 348.59064L368.70312 344.04376Q368.01562 344.075 367.5 344.075L364.96875 344.075L364.96875 343.23126L370.0625 343.23126L370.0625 343.91876L366.6875 347.8719L366.03125 348.59064Q366.75 348.54376 367.35938 348.54376L370.25 348.54376L370.25 349.45L364.73438 349.45ZM374.54688 347.45L375.64062 347.575Q375.39062 348.52814 374.6875 349.0594Q373.98438 349.59064 372.90625 349.59064Q371.54688 349.59064 370.73438 348.7469Q369.9375 347.90314 369.9375 346.3875Q369.9375 344.825 370.75 343.96564Q371.5625 343.09064 372.84375 343.09064Q374.09375 343.09064 374.875 343.9344Q375.67188 344.77814 375.67188 346.325Q375.67188 346.41876 375.67188 346.60626L371.03125 346.60626Q371.09375 347.6375 371.60938 348.1844Q372.125 348.71564 372.90625 348.71564Q373.48438 348.71564 373.89062 348.41876Q374.3125 348.10626 374.54688 347.45ZM371.09375 345.7469L374.5625 345.7469Q374.5 344.95 374.17188 344.5594Q373.65625 343.95 372.85938 343.95Q372.125 343.95 371.625 344.4344Q371.14062 344.91876 371.09375 345.7469Z" fill-rule="nonzero"/><path fill="#000000" d="M29.550013 206.07396L21.971888 206.07396L21.971888 208.90208L20.956263 208.90208L20.956263 202.08958L21.971888 202.08958L21.971888 204.93333L29.550013 204.93333L29.550013 206.07396ZM22.175013 201.38646L20.956263 201.38646L20.956263 200.32396L22.175013 200.32396L22.175013 201.38646ZM29.550013 201.38646L23.331263 201.38646L23.331263 200.32396L29.550013 200.32396L29.550013 201.38646ZM29.550013 198.38646L23.331263 198.38646L23.331263 197.44896L24.206263 197.44896Q23.737513 197.15208 23.471888 196.66771Q23.190638 196.18333 23.190638 195.55833Q23.190638 194.87083 23.471888 194.43333Q23.753138 193.98021 24.268763 193.80833Q23.190638 193.05833 23.190638 191.88646Q23.190638 190.94896 23.706263 190.46458Q24.206263 189.96458 25.284388 189.96458L29.550013 189.96458L29.550013 191.01146L25.628138 191.01146Q25.003138 191.01146 24.721888 191.12083Q24.440638 191.21458 24.268763 191.48021Q24.096888 191.74583 24.096888 192.12083Q24.096888 192.77708 24.534388 193.21458Q24.971888 193.63646 25.940638 193.63646L29.550013 193.63646L29.550013 194.69896L25.503138 194.69896Q24.800013 194.69896 24.456263 194.96458Q24.096888 195.21458 24.096888 195.79271Q24.096888 196.24583 24.331263 196.62083Q24.565638 196.99583 25.018763 197.16771Q25.471888 197.33958 26.315638 197.33958L29.550013 197.33958L29.550013 198.38646ZM27.550013 183.13646L27.675013 182.04271Q28.628138 182.29271 29.159388 182.99583Q29.690638 183.69896 29.690638 184.77708Q29.690638 186.13646 28.846888 186.94896Q28.003138 187.74583 26.487513 187.74583Q24.925013 187.74583 24.065638 186.93333Q23.190638 186.12083 23.190638 184.83958Q23.190638 183.58958 24.034388 182.80833Q24.878138 182.01146 26.425013 182.01146Q26.518763 182.01146 26.706263 182.01146L26.706263 186.65208Q27.737513 186.58958 28.284388 186.07396Q28.815638 185.55833 28.815638 184.77708Q28.815638 184.19896 28.518763 183.79271Q28.206263 183.37083 27.550013 183.13646ZM25.846888 186.58958L25.846888 183.12083Q25.050013 183.18333 24.659388 183.51146Q24.050013 184.02708 24.050013 184.82396Q24.050013 185.55833 24.534388 186.05833Q25.018763 186.54271 25.846888 186.58958ZM32.08126 175.37083Q30.971888 176.24583 29.503138 176.85521Q28.018763 177.44896 26.440638 177.44896Q25.050013 177.44896 23.768763 177.01146Q22.284388 176.48021 20.815638 175.37083L20.815638 174.62083Q22.034388 175.32396 22.550013 175.55833Q23.362513 175.91771 24.237513 176.12083Q25.331263 176.37083 26.440638 176.37083Q29.268763 176.37083 32.08126 174.62083L32.08126 175.37083ZM29.550013 173.38646L23.331263 173.38646L23.331263 172.44896L24.206263 172.44896Q23.190638 171.76146 23.190638 170.46458Q23.190638 169.90208 23.393763 169.43333Q23.596888 168.94896 23.925013 168.71458Q24.253138 168.48021 24.690638 168.38646Q24.987513 168.33958 25.721888 168.33958L29.550013 168.33958L29.550013 169.38646L25.768763 169.38646Q25.112513 169.38646 24.800013 169.51146Q24.487513 169.63646 24.300013 169.94896Q24.096888 170.26146 24.096888 170.68333Q24.096888 171.35521 24.534388 171.85521Q24.956263 172.33958 26.143763 172.33958L29.550013 172.33958L29.550013 173.38646ZM27.690638 166.80833L27.534388 165.77708Q28.159388 165.68333 28.487513 165.29271Q28.815638 164.88646 28.815638 164.15208Q28.815638 163.43333 28.534388 163.08958Q28.237513 162.73021 27.831263 162.73021Q27.471888 162.73021 27.268763 163.04271Q27.128138 163.26146 26.909388 164.12083Q26.612513 165.27708 26.409388 165.73021Q26.190638 166.16771 25.815638 166.40208Q25.440638 166.63646 24.971888 166.63646Q24.565638 166.63646 24.206263 166.44896Q23.846888 166.26146 23.612513 165.93333Q23.440638 165.68333 23.315638 165.26146Q23.190638 164.83958 23.190638 164.33958Q23.190638 163.62083 23.409388 163.07396Q23.612513 162.51146 23.971888 162.24583Q24.331263 161.98021 24.925013 161.88646L25.065638 162.91771Q24.596888 162.98021 24.331263 163.32396Q24.050013 163.65208 24.050013 164.27708Q24.050013 164.99583 24.300013 165.30833Q24.534388 165.62083 24.862513 165.62083Q25.065638 165.62083 25.221888 165.49583Q25.393763 165.35521 25.503138 165.08958Q25.565638 164.93333 25.768763 164.15208Q26.081263 163.02708 26.268763 162.58958Q26.456263 162.15208 26.815638 161.90208Q27.175013 161.65208 27.721888 161.65208Q28.253138 161.65208 28.721888 161.96458Q29.175013 162.26146 29.440638 162.83958Q29.690638 163.41771 29.690638 164.15208Q29.690638 165.37083 29.190638 166.01146Q28.675013 166.63646 27.690638 166.80833ZM32.08126 158.69896L32.08126 159.44896Q29.268763 157.69896 26.440638 157.69896Q25.346888 157.69896 24.253138 157.94896Q23.378138 158.15208 22.565638 158.51146Q22.050013 158.74583 20.815638 159.44896L20.815638 158.69896Q22.284388 157.60521 23.768763 157.07396Q25.050013 156.62083 26.440638 156.62083Q28.018763 156.62083 29.503138 157.23021Q30.971888 157.83958 32.08126 158.69896Z" fill-rule="nonzero"/><path fill="#000000" d="M79.05 300.21564Q79.05 298.6844 79.3625 297.7625Q79.675 296.825 80.28438 296.325Q80.90938 295.825 81.84688 295.825Q82.53438 295.825 83.05 296.10626Q83.58125 296.3875 83.925 296.91876Q84.26875 297.4344 84.45625 298.1844Q84.64375 298.9344 84.64375 300.21564Q84.64375 301.73126 84.33125 302.65314Q84.03438 303.575 83.40938 304.09064Q82.8 304.59064 81.84688 304.59064Q80.6125 304.59064 79.89375 303.7Q79.05 302.6375 79.05 300.21564ZM80.12813 300.21564Q80.12813 302.325 80.62813 303.02814Q81.12813 303.73126 81.84688 303.73126Q82.58125 303.73126 83.06563 303.02814Q83.56563 302.325 83.56563 300.21564Q83.56563 298.09064 83.06563 297.40314Q82.58125 296.7 81.83125 296.7Q81.1125 296.7 80.675 297.3094Q80.12813 298.09064 80.12813 300.21564Z" fill-rule="nonzero"/><path fill="#000000" d="M58.05 240.06667L59.159374 239.97292Q59.284374 240.78542 59.721874 241.19167Q60.175 241.59792 60.815624 241.59792Q61.565624 241.59792 62.096874 241.01979Q62.628124 240.44167 62.628124 239.50417Q62.628124 238.59792 62.1125 238.08229Q61.6125 237.55104 60.784374 237.55104Q60.284374 237.55104 59.8625 237.78542Q59.45625 238.01979 59.221874 238.37917L58.2375 238.25417L59.065624 233.84792L63.346874 233.84792L63.346874 234.84792L59.909374 234.84792L59.45625 237.16042Q60.221874 236.61354 61.065624 236.61354Q62.190624 236.61354 62.95625 237.39479Q63.7375 238.17604 63.7375 239.41042Q63.7375 240.56667 63.065624 241.42604Q62.2375 242.45729 60.815624 242.45729Q59.64375 242.45729 58.89375 241.80104Q58.159374 241.14479 58.05 240.06667ZM65.05 238.08229Q65.05 236.55104 65.3625 235.62917Q65.675 234.69167 66.28438 234.19167Q66.90938 233.69167 67.84688 233.69167Q68.53438 233.69167 69.05 233.97292Q69.58125 234.25417 69.925 234.78542Q70.26875 235.30104 70.45625 236.05104Q70.64375 236.80104 70.64375 238.08229Q70.64375 239.59792 70.33125 240.51979Q70.03438 241.44167 69.40938 241.95729Q68.8 242.45729 67.84688 242.45729Q66.6125 242.45729 65.89375 241.56667Q65.05 240.50417 65.05 238.08229ZM66.12813 238.08229Q66.12813 240.19167 66.62813 240.89479Q67.12813 241.59792 67.84688 241.59792Q68.58125 241.59792 69.06563 240.89479Q69.56563 240.19167 69.56563 238.08229Q69.56563 235.95729 69.06563 235.26979Q68.58125 234.56667 67.83125 234.56667Q67.1125 234.56667 66.675 235.17604Q66.12813 235.95729 66.12813 238.08229ZM72.05 238.08229Q72.05 236.55104 72.3625 235.62917Q72.675 234.69167 73.28438 234.19167Q73.90938 233.69167 74.84688 233.69167Q75.53438 233.69167 76.05 233.97292Q76.58125 234.25417 76.925 234.78542Q77.26875 235.30104 77.45625 236.05104Q77.64375 236.80104 77.64375 238.08229Q77.64375 239.59792 77.33125 240.51979Q77.03438 241.44167 76.40938 241.95729Q75.8 242.45729 74.84688 242.45729Q73.6125 242.45729 72.89375 241.56667Q72.05 240.50417 72.05 238.08229ZM73.12813 238.08229Q73.12813 240.19167 73.62813 240.89479Q74.12813 241.59792 74.84688 241.59792Q75.58125 241.59792 76.06563 240.89479Q76.56563 240.19167 76.56563 238.08229Q76.56563 235.95729 76.06563 235.26979Q75.58125 234.56667 74.83125 234.56667Q74.1125 234.56667 73.675 235.17604Q73.12813 235.95729 73.12813 238.08229ZM79.05 238.08229Q79.05 236.55104 79.3625 235.62917Q79.675 234.69167 80.28438 234.19167Q80.90938 233.69167 81.84688 233.69167Q82.53438 233.69167 83.05 233.97292Q83.58125 234.25417 83.925 234.78542Q84.26875 235.30104 84.45625 236.05104Q84.64375 236.80104 84.64375 238.08229Q84.64375 239.59792 84.33125 240.51979Q84.03438 241.44167 83.40938 241.95729Q82.8 242.45729 81.84688 242.45729Q80.6125 242.45729 79.89375 241.56667Q79.05 240.50417 79.05 238.08229ZM80.12813 238.08229Q80.12813 240.19167 80.62813 240.89479Q81.12813 241.59792 81.84688 241.59792Q82.58125 241.59792 83.06563 240.89479Q83.56563 240.19167 83.56563 238.08229Q83.56563 235.95729 83.06563 235.26979Q82.58125 234.56667 81.83125 234.56667Q81.1125 234.56667 80.675 235.17604Q80.12813 235.95729 80.12813 238.08229Z" fill-rule="nonzero"/><path fill="#000000" d="M55.01875 180.18333L53.971874 180.18333L53.971874 173.46458Q53.58125 173.82396 52.95625 174.19896Q52.346874 174.55833 51.8625 174.73021L51.8625 173.71458Q52.7375 173.29271 53.39375 172.71458Q54.065624 172.12083 54.346874 171.55833L55.01875 171.55833L55.01875 180.18333ZM58.05 175.94896Q58.05 174.41771 58.3625 173.49583Q58.675 172.55833 59.284374 172.05833Q59.909374 171.55833 60.846874 171.55833Q61.534374 171.55833 62.05 171.83958Q62.58125 172.12083 62.925 172.65208Q63.26875 173.16771 63.45625 173.91771Q63.64375 174.66771 63.64375 175.94896Q63.64375 177.46458 63.33125 178.38646Q63.034374 179.30833 62.409374 179.82396Q61.8 180.32396 60.846874 180.32396Q59.6125 180.32396 58.89375 179.43333Q58.05 178.37083 58.05 175.94896ZM59.128124 175.94896Q59.128124 178.05833 59.628124 178.76146Q60.128124 179.46458 60.846874 179.46458Q61.58125 179.46458 62.065624 178.76146Q62.565624 178.05833 62.565624 175.94896Q62.565624 173.82396 62.065624 173.13646Q61.58125 172.43333 60.83125 172.43333Q60.1125 172.43333 59.675 173.04271Q59.128124 173.82396 59.128124 175.94896ZM65.05 175.94896Q65.05 174.41771 65.3625 173.49583Q65.675 172.55833 66.28438 172.05833Q66.90938 171.55833 67.84688 171.55833Q68.53438 171.55833 69.05 171.83958Q69.58125 172.12083 69.925 172.65208Q70.26875 173.16771 70.45625 173.91771Q70.64375 174.66771 70.64375 175.94896Q70.64375 177.46458 70.33125 178.38646Q70.03438 179.30833 69.40938 179.82396Q68.8 180.32396 67.84688 180.32396Q66.6125 180.32396 65.89375 179.43333Q65.05 178.37083 65.05 175.94896ZM66.12813 175.94896Q66.12813 178.05833 66.62813 178.76146Q67.12813 179.46458 67.84688 179.46458Q68.58125 179.46458 69.06563 178.76146Q69.56563 178.05833 69.56563 175.94896Q69.56563 173.82396 69.06563 173.13646Q68.58125 172.43333 67.83125 172.43333Q67.1125 172.43333 66.675 173.04271Q66.12813 173.82396 66.12813 175.94896ZM72.05 175.94896Q72.05 174.41771 72.3625 173.49583Q72.675 172.55833 73.28438 172.05833Q73.90938 171.55833 74.84688 171.55833Q75.53438 171.55833 76.05 171.83958Q76.58125 172.12083 76.925 172.65208Q77.26875 173.16771 77.45625 173.91771Q77.64375 174.66771 77.64375 175.94896Q77.64375 177.46458 77.33125 178.38646Q77.03438 179.30833 76.40938 179.82396Q75.8 180.32396 74.84688 180.32396Q73.6125 180.32396 72.89375 179.43333Q72.05 178.37083 72.05 175.94896ZM73.12813 175.94896Q73.12813 178.05833 73.62813 178.76146Q74.12813 179.46458 74.84688 179.46458Q75.58125 179.46458 76.06563 178.76146Q76.56563 178.05833 76.56563 175.94896Q76.56563 173.82396 76.06563 173.13646Q75.58125 172.43333 74.83125 172.43333Q74.1125 172.43333 73.675 173.04271Q73.12813 173.82396 73.12813 175.94896ZM79.05 175.94896Q79.05 174.41771 79.3625 173.49583Q79.675 172.55833 80.28438 172.05833Q80.90938 171.55833 81.84688 171.55833Q82.53438 171.55833 83.05 171.83958Q83.58125 172.12083 83.925 172.65208Q84.26875 173.16771 84.45625 173.91771Q84.64375 174.66771 84.64375 175.94896Q84.64375 177.46458 84.33125 178.38646Q84.03438 179.30833 83.40938 179.82396Q82.8 180.32396 81.84688 180.32396Q80.6125 180.32396 79.89375 179.43333Q79.05 178.37083 79.05 175.94896ZM80.12813 175.94896Q80.12813 178.05833 80.62813 178.76146Q81.12813 179.46458 81.84688 179.46458Q82.58125 179.46458 83.06563 178.76146Q83.56563 178.05833 83.56563 175.94896Q83.56563 173.82396 83.06563 173.13646Q82.58125 172.43333 81.83125 172.43333Q81.1125 172.43333 80.675 173.04271Q80.12813 173.82396 80.12813 175.94896Z" fill-rule="nonzero"/><path fill="#000000" d="M55.01875 118.05L53.971874 118.05L53.971874 111.33125Q53.58125 111.69063 52.95625 112.06563Q52.346874 112.425 51.8625 112.59688L51.8625 111.58125Q52.7375 111.15938 53.39375 110.58125Q54.065624 109.9875 54.346874 109.425L55.01875 109.425L55.01875 118.05ZM58.05 115.8L59.159374 115.70625Q59.284374 116.51875 59.721874 116.925Q60.175 117.33125 60.815624 117.33125Q61.565624 117.33125 62.096874 116.75313Q62.628124 116.175 62.628124 115.2375Q62.628124 114.33125 62.1125 113.81563Q61.6125 113.28438 60.784374 113.28438Q60.284374 113.28438 59.8625 113.51875Q59.45625 113.75313 59.221874 114.1125L58.2375 113.9875L59.065624 109.58125L63.346874 109.58125L63.346874 110.58125L59.909374 110.58125L59.45625 112.89375Q60.221874 112.34688 61.065624 112.34688Q62.190624 112.34688 62.95625 113.12813Q63.7375 113.90938 63.7375 115.14375Q63.7375 116.3 63.065624 117.15938Q62.2375 118.19063 60.815624 118.19063Q59.64375 118.19063 58.89375 117.53438Q58.159374 116.87813 58.05 115.8ZM65.05 113.81563Q65.05 112.28438 65.3625 111.3625Q65.675 110.425 66.28438 109.925Q66.90938 109.425 67.84688 109.425Q68.53438 109.425 69.05 109.70625Q69.58125 109.9875 69.925 110.51875Q70.26875 111.03438 70.45625 111.78438Q70.64375 112.53438 70.64375 113.81563Q70.64375 115.33125 70.33125 116.25313Q70.03438 117.175 69.40938 117.69063Q68.8 118.19063 67.84688 118.19063Q66.6125 118.19063 65.89375 117.3Q65.05 116.2375 65.05 113.81563ZM66.12813 113.81563Q66.12813 115.925 66.62813 116.62813Q67.12813 117.33125 67.84688 117.33125Q68.58125 117.33125 69.06563 116.62813Q69.56563 115.925 69.56563 113.81563Q69.56563 111.69063 69.06563 111.00313Q68.58125 110.3 67.83125 110.3Q67.1125 110.3 66.675 110.90938Q66.12813 111.69063 66.12813 113.81563ZM72.05 113.81563Q72.05 112.28438 72.3625 111.3625Q72.675 110.425 73.28438 109.925Q73.90938 109.425 74.84688 109.425Q75.53438 109.425 76.05 109.70625Q76.58125 109.9875 76.925 110.51875Q77.26875 111.03438 77.45625 111.78438Q77.64375 112.53438 77.64375 113.81563Q77.64375 115.33125 77.33125 116.25313Q77.03438 117.175 76.40938 117.69063Q75.8 118.19063 74.84688 118.19063Q73.6125 118.19063 72.89375 117.3Q72.05 116.2375 72.05 113.81563ZM73.12813 113.81563Q73.12813 115.925 73.62813 116.62813Q74.12813 117.33125 74.84688 117.33125Q75.58125 117.33125 76.06563 116.62813Q76.56563 115.925 76.56563 113.81563Q76.56563 111.69063 76.06563 111.00313Q75.58125 110.3 74.83125 110.3Q74.1125 110.3 73.675 110.90938Q73.12813 111.69063 73.12813 113.81563ZM79.05 113.81563Q79.05 112.28438 79.3625 111.3625Q79.675 110.425 80.28438 109.925Q80.90938 109.425 81.84688 109.425Q82.53438 109.425 83.05 109.70625Q83.58125 109.9875 83.925 110.51875Q84.26875 111.03438 84.45625 111.78438Q84.64375 112.53438 84.64375 113.81563Q84.64375 115.33125 84.33125 116.25313Q84.03438 117.175 83.40938 117.69063Q82.8 118.19063 81.84688 118.19063Q80.6125 118.19063 79.89375 117.3Q79.05 116.2375 79.05 113.81563ZM80.12813 113.81563Q80.12813 115.925 80.62813 116.62813Q81.12813 117.33125 81.84688 117.33125Q82.58125 117.33125 83.06563 116.62813Q83.56563 115.925 83.56563 113.81563Q83.56563 111.69063 83.06563 111.00313Q82.58125 110.3 81.83125 110.3Q81.1125 110.3 80.675 110.90938Q80.12813 111.69063 80.12813 113.81563Z" fill-rule="nonzero"/><path fill="#000000" d="M56.596874 54.901043L56.596874 55.916668L50.909374 55.916668Q50.909374 55.541668 51.034374 55.182293Q51.253124 54.604168 51.721874 54.041668Q52.20625 53.479168 53.1125 52.744793Q54.51875 51.588543 55.003124 50.916668Q55.503124 50.244793 55.503124 49.651043Q55.503124 49.026043 55.05 48.604168Q54.596874 48.166668 53.878124 48.166668Q53.1125 48.166668 52.659374 48.619793Q52.20625 49.072918 52.190624 49.885418L51.1125 49.776043Q51.221874 48.557293 51.940624 47.932293Q52.675 47.291668 53.909374 47.291668Q55.14375 47.291668 55.8625 47.979168Q56.58125 48.666668 56.58125 49.682293Q56.58125 50.197918 56.3625 50.697918Q56.159374 51.182293 55.659374 51.744793Q55.175 52.291668 54.05 53.244793Q53.096874 54.041668 52.815624 54.338543Q52.55 54.619793 52.378124 54.901043L56.596874 54.901043ZM58.05 51.682293Q58.05 50.151043 58.3625 49.229168Q58.675 48.291668 59.284374 47.791668Q59.909374 47.291668 60.846874 47.291668Q61.534374 47.291668 62.05 47.572918Q62.58125 47.854168 62.925 48.385418Q63.26875 48.901043 63.45625 49.651043Q63.64375 50.401043 63.64375 51.682293Q63.64375 53.197918 63.33125 54.119793Q63.034374 55.041668 62.409374 55.557293Q61.8 56.057293 60.846874 56.057293Q59.6125 56.057293 58.89375 55.166668Q58.05 54.104168 58.05 51.682293ZM59.128124 51.682293Q59.128124 53.791668 59.628124 54.494793Q60.128124 55.197918 60.846874 55.197918Q61.58125 55.197918 62.065624 54.494793Q62.565624 53.791668 62.565624 51.682293Q62.565624 49.557293 62.065624 48.869793Q61.58125 48.166668 60.83125 48.166668Q60.1125 48.166668 59.675 48.776043Q59.128124 49.557293 59.128124 51.682293ZM65.05 51.682293Q65.05 50.151043 65.3625 49.229168Q65.675 48.291668 66.28438 47.791668Q66.90938 47.291668 67.84688 47.291668Q68.53438 47.291668 69.05 47.572918Q69.58125 47.854168 69.925 48.385418Q70.26875 48.901043 70.45625 49.651043Q70.64375 50.401043 70.64375 51.682293Q70.64375 53.197918 70.33125 54.119793Q70.03438 55.041668 69.40938 55.557293Q68.8 56.057293 67.84688 56.057293Q66.6125 56.057293 65.89375 55.166668Q65.05 54.104168 65.05 51.682293ZM66.12813 51.682293Q66.12813 53.791668 66.62813 54.494793Q67.12813 55.197918 67.84688 55.197918Q68.58125 55.197918 69.06563 54.494793Q69.56563 53.791668 69.56563 51.682293Q69.56563 49.557293 69.06563 48.869793Q68.58125 48.166668 67.83125 48.166668Q67.1125 48.166668 66.675 48.776043Q66.12813 49.557293 66.12813 51.682293ZM72.05 51.682293Q72.05 50.151043 72.3625 49.229168Q72.675 48.291668 73.28438 47.791668Q73.90938 47.291668 74.84688 47.291668Q75.53438 47.291668 76.05 47.572918Q76.58125 47.854168 76.925 48.385418Q77.26875 48.901043 77.45625 49.651043Q77.64375 50.401043 77.64375 51.682293Q77.64375 53.197918 77.33125 54.119793Q77.03438 55.041668 76.40938 55.557293Q75.8 56.057293 74.84688 56.057293Q73.6125 56.057293 72.89375 55.166668Q72.05 54.104168 72.05 51.682293ZM73.12813 51.682293Q73.12813 53.791668 73.62813 54.494793Q74.12813 55.197918 74.84688 55.197918Q75.58125 55.197918 76.06563 54.494793Q76.56563 53.791668 76.56563 51.682293Q76.56563 49.557293 76.06563 48.869793Q75.58125 48.166668 74.83125 48.166668Q74.1125 48.166668 73.675 48.776043Q73.12813 49.557293 73.12813 51.682293ZM79.05 51.682293Q79.05 50.151043 79.3625 49.229168Q79.675 48.291668 80.28438 47.791668Q80.90938 47.291668 81.84688 47.291668Q82.53438 47.291668 83.05 47.572918Q83.58125 47.854168 83.925 48.385418Q84.26875 48.901043 84.45625 49.651043Q84.64375 50.401043 84.64375 51.682293Q84.64375 53.197918 84.33125 54.119793Q84.03438 55.041668 83.40938 55.557293Q82.8 56.057293 81.84688 56.057293Q80.6125 56.057293 79.89375 55.166668Q79.05 54.104168 79.05 51.682293ZM80.12813 51.682293Q80.12813 53.791668 80.62813 54.494793Q81.12813 55.197918 81.84688 55.197918Q82.58125 55.197918 83.06563 54.494793Q83.56563 53.791668 83.56563 51.682293Q83.56563 49.557293 83.06563 48.869793Q82.58125 48.166668 81.83125 48.166668Q81.1125 48.166668 80.675 48.776043Q80.12813 49.557293 80.12813 51.682293Z" fill-rule="nonzero"/><path fill="#000000" d="M145.03021 316.4344L145.03021 317.45L139.34271 317.45Q139.34271 317.075 139.46771 316.71564Q139.68646 316.1375 140.15521 315.575Q140.63959 315.0125 141.54584 314.27814Q142.95209 313.1219 143.43646 312.45Q143.93646 311.77814 143.93646 311.1844Q143.93646 310.5594 143.48334 310.1375Q143.03021 309.7 142.31146 309.7Q141.54584 309.7 141.09271 310.15314Q140.63959 310.60626 140.62396 311.41876L139.54584 311.3094Q139.65521 310.09064 140.37396 309.46564Q141.10834 308.825 142.34271 308.825Q143.57709 308.825 144.29584 309.5125Q145.01459 310.2 145.01459 311.21564Q145.01459 311.73126 144.79584 312.23126Q144.59271 312.71564 144.09271 313.27814Q143.60834 313.825 142.48334 314.77814Q141.53021 315.575 141.24896 315.8719Q140.98334 316.15314 140.81146 316.4344L145.03021 316.4344ZM146.48334 313.21564Q146.48334 311.6844 146.79584 310.7625Q147.10834 309.825 147.71771 309.325Q148.34271 308.825 149.28021 308.825Q149.96771 308.825 150.48334 309.10626Q151.01459 309.3875 151.35834 309.91876Q151.70209 310.4344 151.88959 311.1844Q152.07709 311.9344 152.07709 313.21564Q152.07709 314.73126 151.76459 315.65314Q151.46771 316.575 150.84271 317.09064Q150.23334 317.59064 149.28021 317.59064Q148.04584 317.59064 147.32709 316.7Q146.48334 315.6375 146.48334 313.21564ZM147.56146 313.21564Q147.56146 315.325 148.06146 316.02814Q148.56146 316.73126 149.28021 316.73126Q150.01459 316.73126 150.49896 316.02814Q150.99896 315.325 150.99896 313.21564Q150.99896 311.09064 150.49896 310.40314Q150.01459 309.7 149.26459 309.7Q148.54584 309.7 148.10834 310.3094Q147.56146 311.09064 147.56146 313.21564Z" fill-rule="nonzero"/><path fill="#000000" d="M251.725 317.45L251.725 315.3875L248.00626 315.3875L248.00626 314.41876L251.92813 308.85626L252.7875 308.85626L252.7875 314.41876L253.94376 314.41876L253.94376 315.3875L252.7875 315.3875L252.7875 317.45L251.725 317.45ZM251.725 314.41876L251.725 310.5594L249.0375 314.41876L251.725 314.41876ZM255.35 313.21564Q255.35 311.6844 255.6625 310.7625Q255.975 309.825 256.58438 309.325Q257.20938 308.825 258.14688 308.825Q258.83438 308.825 259.35 309.10626Q259.88126 309.3875 260.225 309.91876Q260.56876 310.4344 260.75626 311.1844Q260.94376 311.9344 260.94376 313.21564Q260.94376 314.73126 260.63126 315.65314Q260.33438 316.575 259.70938 317.09064Q259.1 317.59064 258.14688 317.59064Q256.9125 317.59064 256.19376 316.7Q255.35 315.6375 255.35 313.21564ZM256.42813 313.21564Q256.42813 315.325 256.92813 316.02814Q257.42813 316.73126 258.14688 316.73126Q258.88126 316.73126 259.36563 316.02814Q259.86563 315.325 259.86563 313.21564Q259.86563 311.09064 259.36563 310.40314Q258.88126 309.7 258.13126 309.7Q257.4125 309.7 256.975 310.3094Q256.42813 311.09064 256.42813 313.21564Z" fill-rule="nonzero"/><path fill="#000000" d="M362.68542 310.96564L361.63855 311.04376Q361.49792 310.41876 361.24792 310.1375Q360.81042 309.6844 360.18542 309.6844Q359.68542 309.6844 359.2948 309.96564Q358.81042 310.34064 358.51355 311.04376Q358.2323 311.73126 358.21667 313.0125Q358.59167 312.4344 359.13855 312.15314Q359.70105 311.8719 360.31042 311.8719Q361.3573 311.8719 362.09167 312.65314Q362.84167 313.4344 362.84167 314.65314Q362.84167 315.46564 362.4823 316.16876Q362.13855 316.85626 361.52917 317.23126Q360.9198 317.59064 360.15417 317.59064Q358.82605 317.59064 357.99792 316.6219Q357.1698 315.65314 357.1698 313.4344Q357.1698 310.9344 358.09167 309.8094Q358.88855 308.825 360.24792 308.825Q361.26355 308.825 361.90417 309.40314Q362.56042 309.96564 362.68542 310.96564ZM358.38855 314.66876Q358.38855 315.21564 358.6073 315.71564Q358.84167 316.2 359.24792 316.46564Q359.6698 316.73126 360.13855 316.73126Q360.7948 316.73126 361.27917 316.2Q361.76355 315.65314 361.76355 314.73126Q361.76355 313.84064 361.27917 313.325Q360.81042 312.8094 360.09167 312.8094Q359.37292 312.8094 358.87292 313.325Q358.38855 313.84064 358.38855 314.66876ZM364.21667 313.21564Q364.21667 311.6844 364.52917 310.7625Q364.84167 309.825 365.45105 309.325Q366.07605 308.825 367.01355 308.825Q367.70105 308.825 368.21667 309.10626Q368.74792 309.3875 369.09167 309.91876Q369.43542 310.4344 369.62292 311.1844Q369.81042 311.9344 369.81042 313.21564Q369.81042 314.73126 369.49792 315.65314Q369.20105 316.575 368.57605 317.09064Q367.96667 317.59064 367.01355 317.59064Q365.77917 317.59064 365.06042 316.7Q364.21667 315.6375 364.21667 313.21564ZM365.2948 313.21564Q365.2948 315.325 365.7948 316.02814Q366.2948 316.73126 367.01355 316.73126Q367.74792 316.73126 368.2323 316.02814Q368.7323 315.325 368.7323 313.21564Q368.7323 311.09064 368.2323 310.40314Q367.74792 309.7 366.99792 309.7Q366.27917 309.7 365.84167 310.3094Q365.2948 311.09064 365.2948 313.21564Z" fill-rule="nonzero"/><path fill="#000000" d="M467.70834 312.79376Q467.0521 312.54376 466.72397 312.10626Q466.41147 311.65314 466.41147 311.04376Q466.41147 310.10626 467.08334 309.46564Q467.77084 308.825 468.88022 308.825Q470.00522 308.825 470.69272 309.48126Q471.38022 310.1375 471.38022 311.075Q471.38022 311.66876 471.06772 312.10626Q470.75522 312.54376 470.1146 312.79376Q470.91147 313.04376 471.31772 313.6219Q471.72397 314.2 471.72397 314.9969Q471.72397 316.09064 470.94272 316.84064Q470.1771 317.59064 468.89584 317.59064Q467.63022 317.59064 466.84897 316.84064Q466.06772 316.09064 466.06772 314.96564Q466.06772 314.1219 466.4896 313.5594Q466.9271 312.9969 467.70834 312.79376ZM467.4896 310.9969Q467.4896 311.60626 467.88022 311.9969Q468.28647 312.3875 468.91147 312.3875Q469.52084 312.3875 469.91147 312.0125Q470.3021 311.6219 470.3021 311.0594Q470.3021 310.48126 469.89584 310.09064Q469.4896 309.6844 468.89584 309.6844Q468.28647 309.6844 467.88022 310.075Q467.4896 310.46564 467.4896 310.9969ZM467.16147 314.96564Q467.16147 315.41876 467.3646 315.84064Q467.58334 316.2625 468.00522 316.4969Q468.4271 316.73126 468.91147 316.73126Q469.66147 316.73126 470.14584 316.2469Q470.64584 315.7625 470.64584 315.0125Q470.64584 314.2469 470.14584 313.7469Q469.64584 313.2469 468.88022 313.2469Q468.13022 313.2469 467.64584 313.7469Q467.16147 314.23126 467.16147 314.96564ZM473.08334 313.21564Q473.08334 311.6844 473.39584 310.7625Q473.70834 309.825 474.31772 309.325Q474.94272 308.825 475.88022 308.825Q476.56772 308.825 477.08334 309.10626Q477.6146 309.3875 477.95834 309.91876Q478.3021 310.4344 478.4896 311.1844Q478.6771 311.9344 478.6771 313.21564Q478.6771 314.73126 478.3646 315.65314Q478.06772 316.575 477.44272 317.09064Q476.83334 317.59064 475.88022 317.59064Q474.64584 317.59064 473.9271 316.7Q473.08334 315.6375 473.08334 313.21564ZM474.16147 313.21564Q474.16147 315.325 474.66147 316.02814Q475.16147 316.73126 475.88022 316.73126Q476.6146 316.73126 477.09897 316.02814Q477.59897 315.325 477.59897 313.21564Q477.59897 311.09064 477.09897 310.40314Q476.6146 309.7 475.8646 309.7Q475.14584 309.7 474.70834 310.3094Q474.16147 311.09064 474.16147 313.21564Z" fill-rule="nonzero"/><path fill="#000000" d="M575.41876 317.45L574.3719 317.45L574.3719 310.73126Q573.98126 311.09064 573.35626 311.46564Q572.7469 311.825 572.2625 311.9969L572.2625 310.98126Q573.1375 310.5594 573.79376 309.98126Q574.46564 309.3875 574.7469 308.825L575.41876 308.825L575.41876 317.45ZM578.45 313.21564Q578.45 311.6844 578.7625 310.7625Q579.075 309.825 579.6844 309.325Q580.3094 308.825 581.2469 308.825Q581.9344 308.825 582.45 309.10626Q582.98126 309.3875 583.325 309.91876Q583.66876 310.4344 583.85626 311.1844Q584.04376 311.9344 584.04376 313.21564Q584.04376 314.73126 583.73126 315.65314Q583.4344 316.575 582.8094 317.09064Q582.2 317.59064 581.2469 317.59064Q580.0125 317.59064 579.29376 316.7Q578.45 315.6375 578.45 313.21564ZM579.52814 313.21564Q579.52814 315.325 580.02814 316.02814Q580.52814 316.73126 581.2469 316.73126Q581.98126 316.73126 582.46564 316.02814Q582.96564 315.325 582.96564 313.21564Q582.96564 311.09064 582.46564 310.40314Q581.98126 309.7 581.23126 309.7Q580.5125 309.7 580.075 310.3094Q579.52814 311.09064 579.52814 313.21564ZM585.45 313.21564Q585.45 311.6844 585.7625 310.7625Q586.075 309.825 586.6844 309.325Q587.3094 308.825 588.2469 308.825Q588.9344 308.825 589.45 309.10626Q589.98126 309.3875 590.325 309.91876Q590.66876 310.4344 590.85626 311.1844Q591.04376 311.9344 591.04376 313.21564Q591.04376 314.73126 590.73126 315.65314Q590.4344 316.575 589.8094 317.09064Q589.2 317.59064 588.2469 317.59064Q587.0125 317.59064 586.29376 316.7Q585.45 315.6375 585.45 313.21564ZM586.52814 313.21564Q586.52814 315.325 587.02814 316.02814Q587.52814 316.73126 588.2469 316.73126Q588.98126 316.73126 589.46564 316.02814Q589.96564 315.325 589.96564 313.21564Q589.96564 311.09064 589.46564 310.40314Q588.98126 309.7 588.23126 309.7Q587.5125 309.7 587.075 310.3094Q586.52814 311.09064 586.52814 313.21564Z" fill-rule="nonzero"/><path stroke="#4285f4" stroke-width="4.0" stroke-linecap="butt" d="M248.5 25.55L260.5 25.55" fill-rule="nonzero"/><path fill="#1a1a1a" d="M268.84375 27.1125L269.875 26.971874Q269.90625 27.95625 270.23438 28.315624Q270.5625 28.675 271.15625 28.675Q271.57812 28.675 271.89062 28.4875Q272.20312 28.284374 272.3125 27.95625Q272.4375 27.6125 272.4375 26.878124L272.4375 20.95625L273.5625 20.95625L273.5625 26.815624Q273.5625 27.89375 273.29688 28.4875Q273.04688 29.08125 272.48438 29.39375Q271.92188 29.690624 271.15625 29.690624Q270.03125 29.690624 269.42188 29.05Q268.82812 28.39375 268.84375 27.1125ZM274.90625 26.440624Q274.90625 24.70625 275.85938 23.878124Q276.65625 23.190624 277.8125 23.190624Q279.09375 23.190624 279.90625 24.034374Q280.73438 24.8625 280.73438 26.346874Q280.73438 27.55 280.375 28.2375Q280.01562 28.925 279.3125 29.315624Q278.625 29.690624 277.8125 29.690624Q276.51562 29.690624 275.70312 28.8625Q274.90625 28.01875 274.90625 26.440624ZM275.98438 26.440624Q275.98438 27.628124 276.5 28.221874Q277.03125 28.815624 277.8125 28.815624Q278.60938 28.815624 279.125 28.221874Q279.64062 27.628124 279.64062 26.409374Q279.64062 25.253124 279.10938 24.659374Q278.59375 24.065624 277.8125 24.065624Q277.03125 24.065624 276.5 24.659374Q275.98438 25.2375 275.98438 26.440624ZM282.29688 22.175L282.29688 20.95625L283.35938 20.95625L283.35938 22.175L282.29688 22.175ZM282.29688 29.55L282.29688 23.33125L283.35938 23.33125L283.35938 29.55L282.29688 29.55ZM285.29688 29.55L285.29688 23.33125L286.23438 23.33125L286.23438 24.20625Q286.92188 23.190624 288.21875 23.190624Q288.78125 23.190624 289.25 23.39375Q289.73438 23.596874 289.96875 23.925Q290.20312 24.253124 290.29688 24.690624Q290.34375 24.9875 290.34375 25.721874L290.34375 29.55L289.29688 29.55L289.29688 25.76875Q289.29688 25.1125 289.17188 24.8Q289.04688 24.4875 288.73438 24.3Q288.42188 24.096874 288.0 24.096874Q287.32812 24.096874 286.82812 24.534374Q286.34375 24.95625 286.34375 26.14375L286.34375 29.55L285.29688 29.55Z" fill-rule="nonzero"/><path stroke="#ea4335" stroke-width="4.0" stroke-linecap="butt" d="M307.5 25.55L319.5 25.55" fill-rule="nonzero"/><path fill="#1a1a1a" d="M328.48438 29.55L328.48438 20.95625L334.28125 20.95625L334.28125 21.971874L329.625 21.971874L329.625 24.628124L333.65625 24.628124L333.65625 25.64375L329.625 25.64375L329.625 29.55L328.48438 29.55ZM335.29688 22.175L335.29688 20.95625L336.35938 20.95625L336.35938 22.175L335.29688 22.175ZM335.29688 29.55L335.29688 23.33125L336.35938 23.33125L336.35938 29.55L335.29688 29.55ZM338.28125 29.55L338.28125 23.33125L339.23438 23.33125L339.23438 24.26875Q339.59375 23.6125 339.89062 23.409374Q340.20312 23.190624 340.57812 23.190624Q341.10938 23.190624 341.65625 23.51875L341.29688 24.503124Q340.90625 24.26875 340.53125 24.26875Q340.17188 24.26875 339.89062 24.4875Q339.625 24.690624 339.51562 25.065624Q339.32812 25.628124 339.32812 26.284374L339.32812 29.55L338.28125 29.55ZM341.875 27.690624L342.90625 27.534374Q343.0 28.159374 343.39062 28.4875Q343.79688 28.815624 344.53125 28.815624Q345.25 28.815624 345.59375 28.534374Q345.95312 28.2375 345.95312 27.83125Q345.95312 27.471874 345.64062 27.26875Q345.42188 27.128124 344.5625 26.909374Q343.40625 26.6125 342.95312 26.409374Q342.51562 26.190624 342.28125 25.815624Q342.04688 25.440624 342.04688 24.971874Q342.04688 24.565624 342.23438 24.20625Q342.42188 23.846874 342.75 23.6125Q343.0 23.440624 343.42188 23.315624Q343.84375 23.190624 344.34375 23.190624Q345.0625 23.190624 345.60938 23.409374Q346.17188 23.6125 346.4375 23.971874Q346.70312 24.33125 346.79688 24.925L345.76562 25.065624Q345.70312 24.596874 345.35938 24.33125Q345.03125 24.05 344.40625 24.05Q343.6875 24.05 343.375 24.3Q343.0625 24.534374 343.0625 24.8625Q343.0625 25.065624 343.1875 25.221874Q343.32812 25.39375 343.59375 25.503124Q343.75 25.565624 344.53125 25.76875Q345.65625 26.08125 346.09375 26.26875Q346.53125 26.45625 346.78125 26.815624Q347.03125 27.175 347.03125 27.721874Q347.03125 28.253124 346.71875 28.721874Q346.42188 29.175 345.84375 29.440624Q345.26562 29.690624 344.53125 29.690624Q343.3125 29.690624 342.67188 29.190624Q342.04688 28.675 341.875 27.690624ZM351.59375 28.6125L351.75 29.534374Q351.29688 29.628124 350.95312 29.628124Q350.375 29.628124 350.0625 29.45625Q349.75 29.26875 349.60938 28.971874Q349.48438 28.675 349.48438 27.721874L349.48438 24.14375L348.71875 24.14375L348.71875 23.33125L349.48438 23.33125L349.48438 21.784374L350.53125 21.159374L350.53125 23.33125L351.59375 23.33125L351.59375 24.14375L350.53125 24.14375L350.53125 27.784374Q350.53125 28.2375 350.57812 28.3625Q350.64062 28.4875 350.76562 28.565624Q350.89062 28.64375 351.125 28.64375Q351.3125 28.64375 351.59375 28.6125Z" fill-rule="nonzero"/></svg>